<mxfile host="Electron" agent="Mozilla/5.0 (Windows NT 10.0; Win64; x64) AppleWebKit/537.36 (KHTML, like Gecko) draw.io/25.0.2 Chrome/128.0.6613.186 Electron/32.2.5 Safari/537.36" version="25.0.2">
  <diagram name="Page-1" id="n0YgC8UiG-O5VVQXnp_B">
    <mxGraphModel dx="3004" dy="1370" grid="1" gridSize="10" guides="1" tooltips="1" connect="1" arrows="1" fold="1" page="1" pageScale="1" pageWidth="827" pageHeight="1169" math="0" shadow="0">
      <root>
        <mxCell id="0" />
        <mxCell id="1" parent="0" />
        <mxCell id="AFDJKXeahs778PJMqhyC-4" value="" style="edgeStyle=orthogonalEdgeStyle;rounded=0;orthogonalLoop=1;jettySize=auto;html=1;fontSize=12;labelBackgroundColor=none;fontColor=default;" edge="1" parent="1" source="AFDJKXeahs778PJMqhyC-2" target="AFDJKXeahs778PJMqhyC-3">
          <mxGeometry relative="1" as="geometry" />
        </mxCell>
        <mxCell id="AFDJKXeahs778PJMqhyC-2" value="เริ่ม" style="strokeWidth=2;html=1;shape=mxgraph.flowchart.terminator;whiteSpace=wrap;fontColor=default;labelBackgroundColor=none;fontSize=12;" vertex="1" parent="1">
          <mxGeometry x="330" y="320" width="170" height="60" as="geometry" />
        </mxCell>
        <mxCell id="AFDJKXeahs778PJMqhyC-6" style="edgeStyle=orthogonalEdgeStyle;rounded=0;orthogonalLoop=1;jettySize=auto;html=1;entryX=0.5;entryY=0;entryDx=0;entryDy=0;fontSize=12;labelBackgroundColor=none;fontColor=default;" edge="1" parent="1" source="AFDJKXeahs778PJMqhyC-3" target="AFDJKXeahs778PJMqhyC-5">
          <mxGeometry relative="1" as="geometry" />
        </mxCell>
        <mxCell id="AFDJKXeahs778PJMqhyC-3" value="กำหนด&amp;nbsp;&lt;div&gt;&lt;div style=&quot;font-family: Consolas, &amp;quot;Courier New&amp;quot;, monospace; line-height: 27px; white-space: pre;&quot;&gt;&lt;span&gt;nums&lt;/span&gt; &lt;span&gt;=&lt;/span&gt; &lt;span&gt;0&lt;/span&gt;&lt;span&gt;,&lt;/span&gt; &lt;span&gt;nume&lt;/span&gt; &lt;span&gt;=&lt;/span&gt; &lt;span&gt;0&lt;/span&gt;&lt;span&gt;,&lt;/span&gt; &lt;span&gt;i&lt;/span&gt; &lt;span&gt;=&lt;/span&gt; &lt;span&gt;1&lt;/span&gt; &lt;/div&gt;&lt;/div&gt;" style="whiteSpace=wrap;html=1;strokeWidth=2;fontColor=default;labelBackgroundColor=none;fontSize=12;" vertex="1" parent="1">
          <mxGeometry x="317.5" y="450" width="195" height="60" as="geometry" />
        </mxCell>
        <mxCell id="AFDJKXeahs778PJMqhyC-8" value="" style="edgeStyle=orthogonalEdgeStyle;rounded=0;orthogonalLoop=1;jettySize=auto;html=1;fontSize=12;labelBackgroundColor=none;fontColor=default;" edge="1" parent="1" source="AFDJKXeahs778PJMqhyC-5" target="AFDJKXeahs778PJMqhyC-7">
          <mxGeometry relative="1" as="geometry" />
        </mxCell>
        <mxCell id="AFDJKXeahs778PJMqhyC-5" value="รับค่า nums และ nume" style="shape=parallelogram;perimeter=parallelogramPerimeter;whiteSpace=wrap;html=1;fixedSize=1;strokeWidth=2;fontSize=12;labelBackgroundColor=none;fontColor=default;" vertex="1" parent="1">
          <mxGeometry x="297.5" y="580" width="235" height="60" as="geometry" />
        </mxCell>
        <mxCell id="AFDJKXeahs778PJMqhyC-10" value="" style="edgeStyle=orthogonalEdgeStyle;rounded=0;orthogonalLoop=1;jettySize=auto;html=1;labelBackgroundColor=none;fontColor=default;fontSize=12;" edge="1" parent="1" source="AFDJKXeahs778PJMqhyC-7" target="AFDJKXeahs778PJMqhyC-9">
          <mxGeometry relative="1" as="geometry" />
        </mxCell>
        <mxCell id="AFDJKXeahs778PJMqhyC-12" style="edgeStyle=orthogonalEdgeStyle;rounded=0;orthogonalLoop=1;jettySize=auto;html=1;entryX=0.5;entryY=0;entryDx=0;entryDy=0;exitX=1;exitY=0.5;exitDx=0;exitDy=0;fontColor=default;labelBackgroundColor=none;fontSize=12;" edge="1" parent="1" source="AFDJKXeahs778PJMqhyC-7" target="AFDJKXeahs778PJMqhyC-11">
          <mxGeometry relative="1" as="geometry">
            <Array as="points">
              <mxPoint x="570" y="735" />
              <mxPoint x="570" y="920" />
              <mxPoint x="414" y="920" />
            </Array>
          </mxGeometry>
        </mxCell>
        <mxCell id="AFDJKXeahs778PJMqhyC-7" value="&lt;font&gt;ถ้า&amp;nbsp;&lt;span style=&quot;font-family: Consolas, &amp;quot;Courier New&amp;quot;, monospace; white-space: pre;&quot;&gt;nums&lt;/span&gt;&lt;span style=&quot;font-family: Consolas, &amp;quot;Courier New&amp;quot;, monospace; white-space: pre;&quot;&gt; &lt;/span&gt;&lt;span style=&quot;font-family: Consolas, &amp;quot;Courier New&amp;quot;, monospace; white-space: pre;&quot;&gt;&amp;gt;&lt;/span&gt;&lt;span style=&quot;font-family: Consolas, &amp;quot;Courier New&amp;quot;, monospace; white-space: pre;&quot;&gt; &lt;/span&gt;&lt;span style=&quot;font-family: Consolas, &amp;quot;Courier New&amp;quot;, monospace; white-space: pre;&quot;&gt;nume&lt;/span&gt;&lt;/font&gt;" style="rhombus;whiteSpace=wrap;html=1;fontSize=12;labelBackgroundColor=none;fontColor=default;" vertex="1" parent="1">
          <mxGeometry x="280" y="669.9999999999999" width="270" height="130" as="geometry" />
        </mxCell>
        <mxCell id="AFDJKXeahs778PJMqhyC-9" value="&lt;div&gt;แสดงคำว่า error&lt;/div&gt;" style="shape=parallelogram;perimeter=parallelogramPerimeter;whiteSpace=wrap;html=1;fixedSize=1;strokeWidth=2;labelBackgroundColor=none;fontColor=default;fontSize=12;" vertex="1" parent="1">
          <mxGeometry x="297.5" y="840" width="235" height="60" as="geometry" />
        </mxCell>
        <mxCell id="AFDJKXeahs778PJMqhyC-14" value="" style="edgeStyle=orthogonalEdgeStyle;rounded=0;orthogonalLoop=1;jettySize=auto;html=1;fontColor=default;labelBackgroundColor=none;fontSize=12;" edge="1" parent="1" source="AFDJKXeahs778PJMqhyC-11" target="AFDJKXeahs778PJMqhyC-13">
          <mxGeometry relative="1" as="geometry" />
        </mxCell>
        <mxCell id="AFDJKXeahs778PJMqhyC-11" value="ถ้า&lt;span style=&quot;font-family: Consolas, &amp;quot;Courier New&amp;quot;, monospace; white-space: pre;&quot;&gt;nums&lt;/span&gt;&lt;span style=&quot;font-family: Consolas, &amp;quot;Courier New&amp;quot;, monospace; white-space: pre;&quot;&gt; &lt;/span&gt;&lt;span style=&quot;font-family: Consolas, &amp;quot;Courier New&amp;quot;, monospace; white-space: pre;&quot;&gt;&amp;lt;=&lt;/span&gt;&lt;span style=&quot;font-family: Consolas, &amp;quot;Courier New&amp;quot;, monospace; white-space: pre;&quot;&gt; &lt;/span&gt;&lt;span style=&quot;font-family: Consolas, &amp;quot;Courier New&amp;quot;, monospace; white-space: pre;&quot;&gt;nume&lt;/span&gt;" style="rhombus;whiteSpace=wrap;html=1;labelBackgroundColor=none;fontColor=default;fontSize=12;" vertex="1" parent="1">
          <mxGeometry x="279" y="949.9999999999999" width="270" height="130" as="geometry" />
        </mxCell>
        <mxCell id="AFDJKXeahs778PJMqhyC-16" value="" style="edgeStyle=orthogonalEdgeStyle;rounded=0;orthogonalLoop=1;jettySize=auto;html=1;fontSize=12;fontColor=default;labelBackgroundColor=none;" edge="1" parent="1" source="AFDJKXeahs778PJMqhyC-13" target="AFDJKXeahs778PJMqhyC-15">
          <mxGeometry relative="1" as="geometry" />
        </mxCell>
        <mxCell id="AFDJKXeahs778PJMqhyC-13" value="i = i&amp;nbsp;" style="whiteSpace=wrap;html=1;strokeWidth=2;fontColor=default;labelBackgroundColor=none;fontSize=12;" vertex="1" parent="1">
          <mxGeometry x="304" y="1140" width="220" height="60" as="geometry" />
        </mxCell>
        <mxCell id="AFDJKXeahs778PJMqhyC-20" value="" style="edgeStyle=orthogonalEdgeStyle;rounded=0;orthogonalLoop=1;jettySize=auto;html=1;" edge="1" parent="1" source="AFDJKXeahs778PJMqhyC-15" target="AFDJKXeahs778PJMqhyC-19">
          <mxGeometry relative="1" as="geometry" />
        </mxCell>
        <mxCell id="AFDJKXeahs778PJMqhyC-15" value="&lt;div style=&quot;font-family: Consolas, &amp;quot;Courier New&amp;quot;, monospace; line-height: 27px; white-space: pre;&quot;&gt;&lt;span&gt;i&lt;/span&gt; &lt;span&gt;&amp;lt;=&lt;/span&gt; &lt;span&gt;9&lt;/span&gt;&lt;/div&gt;" style="rhombus;whiteSpace=wrap;html=1;fontColor=default;labelBackgroundColor=none;fontSize=12;" vertex="1" parent="1">
          <mxGeometry x="279" y="1250" width="270" height="130" as="geometry" />
        </mxCell>
        <mxCell id="AFDJKXeahs778PJMqhyC-22" value="" style="edgeStyle=orthogonalEdgeStyle;rounded=0;orthogonalLoop=1;jettySize=auto;html=1;" edge="1" parent="1" source="AFDJKXeahs778PJMqhyC-19" target="AFDJKXeahs778PJMqhyC-21">
          <mxGeometry relative="1" as="geometry" />
        </mxCell>
        <mxCell id="AFDJKXeahs778PJMqhyC-19" value="&lt;div&gt;&lt;font style=&quot;font-family: Consolas, &amp;quot;Courier New&amp;quot;, monospace; white-space: pre;&quot;&gt;แสดงค่า nums&lt;/font&gt;&lt;span style=&quot;font-family: Consolas, &amp;quot;Courier New&amp;quot;, monospace; white-space: pre;&quot;&gt; x &lt;/span&gt;&lt;font style=&quot;font-family: Consolas, &amp;quot;Courier New&amp;quot;, monospace; white-space: pre;&quot;&gt;i&lt;/font&gt;&lt;span style=&quot;font-family: Consolas, &amp;quot;Courier New&amp;quot;, monospace; white-space: pre;&quot;&gt; = &lt;/span&gt;&lt;font style=&quot;font-family: Consolas, &amp;quot;Courier New&amp;quot;, monospace; white-space: pre;&quot;&gt;ค่า nums * i&lt;/font&gt;&lt;br&gt;&lt;/div&gt;" style="shape=parallelogram;perimeter=parallelogramPerimeter;whiteSpace=wrap;html=1;fixedSize=1;strokeWidth=2;" vertex="1" parent="1">
          <mxGeometry x="296" y="1430" width="235" height="60" as="geometry" />
        </mxCell>
        <mxCell id="AFDJKXeahs778PJMqhyC-24" value="" style="edgeStyle=orthogonalEdgeStyle;rounded=0;orthogonalLoop=1;jettySize=auto;html=1;" edge="1" parent="1" source="AFDJKXeahs778PJMqhyC-21" target="AFDJKXeahs778PJMqhyC-23">
          <mxGeometry relative="1" as="geometry" />
        </mxCell>
        <mxCell id="AFDJKXeahs778PJMqhyC-21" value="&lt;div&gt;i++&lt;/div&gt;" style="whiteSpace=wrap;html=1;strokeWidth=2;" vertex="1" parent="1">
          <mxGeometry x="304" y="1540" width="220" height="60" as="geometry" />
        </mxCell>
        <mxCell id="AFDJKXeahs778PJMqhyC-25" style="edgeStyle=orthogonalEdgeStyle;rounded=0;orthogonalLoop=1;jettySize=auto;html=1;exitX=0;exitY=0.5;exitDx=0;exitDy=0;" edge="1" parent="1" source="AFDJKXeahs778PJMqhyC-23">
          <mxGeometry relative="1" as="geometry">
            <mxPoint x="414" y="920" as="targetPoint" />
            <Array as="points">
              <mxPoint x="250" y="1710" />
              <mxPoint x="250" y="920" />
            </Array>
          </mxGeometry>
        </mxCell>
        <mxCell id="AFDJKXeahs778PJMqhyC-23" value="&lt;div&gt;nums++&lt;/div&gt;" style="whiteSpace=wrap;html=1;strokeWidth=2;" vertex="1" parent="1">
          <mxGeometry x="304" y="1680" width="220" height="60" as="geometry" />
        </mxCell>
        <mxCell id="AFDJKXeahs778PJMqhyC-26" value="จบ" style="strokeWidth=2;html=1;shape=mxgraph.flowchart.terminator;whiteSpace=wrap;" vertex="1" parent="1">
          <mxGeometry x="330" y="1810" width="170" height="60" as="geometry" />
        </mxCell>
        <mxCell id="AFDJKXeahs778PJMqhyC-27" style="edgeStyle=orthogonalEdgeStyle;rounded=0;orthogonalLoop=1;jettySize=auto;html=1;entryX=0.5;entryY=0;entryDx=0;entryDy=0;entryPerimeter=0;exitX=1;exitY=0.5;exitDx=0;exitDy=0;" edge="1" parent="1" source="AFDJKXeahs778PJMqhyC-11" target="AFDJKXeahs778PJMqhyC-26">
          <mxGeometry relative="1" as="geometry">
            <Array as="points">
              <mxPoint x="569" y="1015" />
              <mxPoint x="569" y="1770" />
              <mxPoint x="415" y="1770" />
            </Array>
          </mxGeometry>
        </mxCell>
      </root>
    </mxGraphModel>
  </diagram>
</mxfile>
